<svg version="1.1" xmlns="http://www.w3.org/2000/svg" xmlns:xlink="http://www.w3.org/1999/xlink" x="0px" y="0px"
	 width="1000.03px" height="186.53px" viewBox="0 0 1000.03 186.53" style="enable-background:new 0 0 1000.03 186.53;"
	 xml:space="preserve">
<defs>
</defs>
<path d="M137.93,0.13c32.22,0,58.59,16.24,58.59,53.26c0,15.44-5.86,30.62-18.64,37.01c13.32,10.38,18.64,25.56,18.64,41.01
	c0,37.54-27.16,55.12-60.45,55.12H38.35C11.18,186.53,0,175.34,0,148.19V38.47C0,11.31,11.19,0.13,38.35,0.13L137.93,0.13
	L137.93,0.13z M135.01,76.28c15.45,0,28.23-5.32,28.23-22.9c0-17.58-12.78-22.9-28.23-22.9H46.07c-9.05,0-12.78,3.73-12.78,12.78
	v20.5c0,9.05,3.73,12.78,12.78,12.78L135.01,76.28L135.01,76.28z M133.14,156.17c16.25,0,30.09-6.12,30.09-24.76
	c0-18.64-13.85-24.77-30.09-24.77l-87.08,0.27c-9.05,0-12.78,3.73-12.78,12.78v23.7c0,9.05,3.73,12.78,12.78,12.78L133.14,156.17
	L133.14,156.17z M264.1,168.83c0,8.96-4.86,17.66-16.13,17.66c-11.01,0-15.87-8.7-15.87-17.66V17.81c0-8.96,4.86-17.66,15.87-17.66
	c11.26,0,16.13,8.7,16.13,17.66V168.83L264.1,168.83z M448.65,84.36c-4.61,7.17-4.61,10.75,0,17.4l41.98,60.41
	c2.3,3.33,3.33,6.4,3.33,9.47c0,9.21-8.96,14.85-15.87,14.85c-7.93,0-12.03-5.64-19.45-16.13l-35.83-51.71
	c-8.19-11.77-12.8-12.28-21.5-12.28h-52.22c-8.7,0-12.29,3.58-12.29,12.28v50.17c0,8.96-4.86,17.66-16.12,17.66
	c-11.01,0-15.87-8.7-15.87-17.66V17.81c0-8.96,4.86-17.66,15.87-17.66c11.26,0,16.12,8.7,16.12,17.66v47.1
	c0,8.7,3.58,12.29,12.29,12.29h52.98c8.7,0,13.31-0.51,21.5-12.29l32.25-48.63c7.17-10.75,11.52-16.13,19.45-16.13
	c6.91,0,15.87,5.63,15.87,14.85c0,3.07-1.02,6.14-3.33,9.47L448.65,84.36L448.65,84.36z M663.41,119.94
	c-8.45,11.77-16.9,17.91-24.58,17.91c-8.45,0-16.13-6.14-24.57-17.91l-55.8-76.79c-1.03-1.28-2.05-2.05-3.07-2.05
	c-1.54,0-2.82,1.54-2.82,4.61v123.12c0,8.96-4.86,17.66-16.13,17.66c-11.01,0-15.87-8.7-15.87-17.66V31.12
	c0-15.61,7.94-30.97,26.88-30.97c13.57,0,24.32,7.17,34.56,21.25l52.73,72.44c1.28,1.79,2.3,3.07,4.09,3.07
	c1.54,0,2.82-1.28,4.1-3.07l52.73-72.44C705.9,7.31,716.65,0.14,730.22,0.14c18.94,0,26.88,15.36,26.88,30.97v137.71
	c0,8.96-4.87,17.66-15.87,17.66c-11.26,0-16.13-8.7-16.13-17.66V45.71c0-3.07-1.28-4.61-2.81-4.61c-1.02,0-2.05,0.77-3.07,2.05
	L663.41,119.94L663.41,119.94z M869.77,186.48c-56.47,0-79.65-23.18-79.65-79.65V79.65C790.12,23.18,813.29,0,869.77,0h50.61
	c56.48,0,79.65,23.18,79.65,79.65v27.17c0,56.48-23.17,79.65-79.65,79.65H869.77z M921.45,156.1c31.97,0,45.29-13.32,45.29-44.75
	V75.12c0-31.44-13.32-44.76-45.29-44.76H868.7c-31.97,0-45.28,13.32-45.28,44.76v36.23c0,31.44,13.32,44.75,45.28,44.75H921.45z"/>
</svg>
