<svg version="1.1" xmlns="http://www.w3.org/2000/svg" xmlns:xlink="http://www.w3.org/1999/xlink" x="0px" y="0px"
	 width="149.06px" height="29.9px" viewBox="0 0 149.06 29.9" style="enable-background:new 0 0 149.06 29.9;" xml:space="preserve"
	>
<style type="text/css">
	.st0{fill:#E30613;}
	.st1{fill:#1D1D1B;}
	.st2{fill:#FFFFFF;}
</style>
<defs>
</defs>
<g>
	<g>
		<g>
			<g>
				<rect x="1.2" y="1.2" class="st0" width="72.5" height="27.6"/>
				<path class="st1" d="M74.8,0H0v29.9h74.8V0z M1.2,28.8V1.2h72.5v27.6C73.7,28.8,1.2,28.8,1.2,28.8z"/>
			</g>
		</g>
		<g>
			<g>
				<g>
					<polygon class="st1" points="42.8,25.5 42.8,18.8 42.3,18.8 42.3,18.1 36.6,18.1 36.6,5.1 36.1,5.1 36.1,4.4 28.3,4.4 28.3,25 
						29,25 29,25.5 					"/>
					<polygon class="st1" points="52.3,25.5 52.3,5.1 51.8,5.1 51.8,4.4 44,4.4 44,25 44.7,25 44.7,25.5 					"/>
					<path class="st1" d="M63.2,25.5v-7.1h5.4V13c0,0-0.2,0-0.5,0v-0.7c0,0-3.5,0-4.9,0c0-0.5,0-1.1,0-1.2c0.2,0,6.2,0,6.2,0v-6
						h-0.5V4.4h-14V25h0.7v0.5H63.2z"/>
					<path class="st1" d="M20,25.9c2.9,0,6-1.4,7.6-3.4l-3.7-5.7c-0.1,0.2-0.2,0.3-0.4,0.4L23,16.4c-0.7,1-1.8,1.7-3,1.7
						c-0.3,0-0.7,0-1-0.1c-1.2-0.5-2-1.5-2-2.9c0-1.7,1.2-3.4,3.3-3.4c1,0,2.2,0.5,2.8,1.3l3.5-5.6c-0.1-0.1-0.3-0.2-0.4-0.3
						l0.3-0.4c-1.9-1.7-4.4-2.6-7-2.6c-5.9,0-10.6,4.8-10.6,10.6c0,3.5,1.7,6.6,4.3,8.5C14.9,24.9,17.3,25.9,20,25.9z"/>
				</g>
				<g>
					<polygon class="st2" points="55.3,4.8 55.3,24.6 62.2,24.6 62.2,17.5 67.7,17.5 67.7,12.7 62.2,12.7 62.2,10.1 68.4,10.1 
						68.4,4.8 					"/>
					<rect x="44.5" y="4.8" class="st2" width="6.9" height="19.7"/>
					<polygon class="st2" points="28.8,4.8 28.8,24.6 41.9,24.6 41.9,18.6 35.6,18.6 35.6,4.8 					"/>
					<path class="st2" d="M25.8,6.8c-1.8-1.5-4.1-2.3-6.4-2.3c-5.6,0-10.2,4.6-10.2,10.2s4.6,10.2,10.2,10.2c2.5,0,5-0.9,6.9-2.7
						c-0.3-0.5-2.4-3.7-3.1-4.8L23,17.2c-0.8,0.9-1.9,1.4-3,1.4c-2.2,0-4-1.8-4-4s1.8-4,4-4c1,0,2,0.4,2.7,1.1
						c0.2-0.3,1-1.5,1.7-2.6C25,8,25.6,7.1,25.8,6.8z"/>
				</g>
			</g>
			<g>
				<g>
					<g>
						<g>
							<g>
								<path class="st1" d="M3.3,15l3.4-3.4v6.8L3.3,15z"/>
								<polygon class="st2" points="6.2,13 4.1,15 6.2,17 								"/>
							</g>
						</g>
					</g>
				</g>
			</g>
		</g>
	</g>
	<path class="st1" d="M77.6,29.6c-0.2,0.2-0.4,0.3-0.7,0.3c-0.3,0-0.5-0.1-0.7-0.3c-0.2-0.2-0.3-0.4-0.3-0.7c0-0.3,0.1-0.6,0.3-0.8
		c0.2-0.2,0.4-0.3,0.7-0.3c0.3,0,0.5,0.1,0.7,0.3c0.2,0.2,0.3,0.4,0.3,0.7C78,29.2,77.9,29.4,77.6,29.6z M76.3,28.3
		c-0.2,0.2-0.3,0.4-0.3,0.6s0.1,0.4,0.3,0.6c0.2,0.2,0.4,0.2,0.6,0.2s0.4-0.1,0.6-0.3c0.2-0.2,0.3-0.4,0.3-0.6s-0.1-0.4-0.3-0.6
		c-0.2-0.2-0.4-0.3-0.6-0.3C76.7,28,76.5,28.1,76.3,28.3z M76.5,29.5v-1.1c0.1,0,0.2,0,0.3,0c0.1,0,0.2,0,0.2,0c0.1,0,0.2,0,0.2,0.1
		c0.1,0.1,0.2,0.1,0.2,0.3c0,0.1,0,0.2-0.1,0.2s-0.1,0.1-0.2,0.1c0.1,0,0.1,0,0.2,0.1s0.1,0.1,0.1,0.3v0.1l0,0l0,0l0,0h-0.3
		c0,0,0-0.1,0-0.2s0-0.1,0-0.1s0-0.1-0.1-0.1h-0.1h-0.1h-0.1v0.4h-0.2V29.5z M77,28.5c0,0-0.1,0-0.2,0h-0.1v0.3h0.1
		c0.1,0,0.1,0,0.2,0l0.1-0.1C77.1,28.6,77.1,28.6,77,28.5z"/>
</g>
<g>
	<path class="st1" d="M90.8,10.4l1.9,0.5c0.1,0,0.1,0.1,0.1,0.2c-0.6,1.4-2,2.6-3.9,2.6c-2.7,0-4.4-2-4.4-4.4c0-2.6,1.9-4.4,4.4-4.4
		c2.1,0,3.3,1.1,3.9,2.4c0.1,0.1,0,0.2,0,0.2l-1.9,0.7c-0.1,0-0.1,0-0.1-0.1C90.4,7.3,89.8,7,89,7c-1.2,0-2,1-2,2.3
		c0,1.6,1,2.3,2.1,2.3c0.8,0,1.5-0.4,1.8-1C90.7,10.4,90.7,10.4,90.8,10.4z"/>
	<path class="st1" d="M99.5,13.4c0,0.1,0,0.1-0.1,0.1c-0.8,0-4.5,0-5.3,0c-0.1,0-0.1,0-0.1-0.1c0-1.5,0-2.8,0-4.1c0-1.4,0-2.6,0-4.1
		C94,5,94,5,94.1,5c0.7,0,1.2,0,2,0c0.1,0,0.1,0,0.1,0.1c0,1.3,0,6.4,0,6.4l3.1-0.1c0.1,0,0.1,0,0.1,0.1
		C99.5,12,99.5,12.4,99.5,13.4z"/>
	<path class="st1" d="M103,9.2c0,1.6,0,3.1,0,4.1c0,0.1,0,0.1-0.1,0.1c-0.8,0-1.3,0-2.1,0c-0.1,0-0.1,0-0.1-0.1c0-1.5,0-2.8,0-4.1
		c0-1.4,0-2.6,0-4.1c0-0.1,0-0.1,0.1-0.1c0.8,0,1.2,0,2.1,0c0.1,0,0.1,0,0.1,0.1C103,6.1,103,7.6,103,9.2z"/>
	<path class="st1" d="M105,13.5c-0.1,0-0.1,0-0.1-0.2c0-2.4,0-5.4,0-8.1c0-0.1,0-0.2,0.1-0.2h5.5c0.1,0,0.1,0,0.1,0.1
		c0,0.5,0,1.2,0,1.7c0,0.1,0,0.1-0.1,0.1h-3.3v1.7h3c0.1,0,0.2,0,0.2,0.1c0,0.5,0,1.1,0,1.7c0,0.1-0.1,0.1-0.2,0.1h-3
		c0,0,0,1.8,0,2.8c0,0.1,0,0.2-0.1,0.2C107.1,13.5,105,13.5,105,13.5z"/>
	<path class="st1" d="M118.9,13.5c-1.8,0-2.9,0-4.7,0c-0.1,0-0.1,0-0.1-0.2c0-3.2,0-5,0-8.2c0-0.1,0-0.1,0.2-0.1c1.4,0,2.7,0,4.4,0
		c1.5,0,2.5,0.8,2.5,2.2c0,0.9-0.5,1.6-1.5,1.9c1.1,0.1,1.7,1.1,1.7,2.1C121.3,12.5,120.4,13.5,118.9,13.5z M118,8.3
		c0.5,0,0.8-0.3,0.8-0.8s-0.3-0.8-0.8-0.8h-1.7v1.6H118z M118.1,11.7c0.5,0,0.9-0.3,0.9-0.9c0-0.5-0.4-0.9-0.9-0.9h-1.8v1.8
		C116.3,11.7,118.1,11.7,118.1,11.7z"/>
	<path class="st1" d="M124.4,12.3c-0.2,0.4-0.3,0.8-0.4,1.1c0,0.1-0.1,0.1-0.2,0.1c-0.8,0-1.2,0-2.1,0c-0.1,0-0.1,0-0.1-0.2
		c1.3-2.8,3.1-6.4,4.2-8.6h0.3c1.2,2.3,2.9,5.8,4.3,8.6c0.1,0.2,0.1,0.2,0,0.2c-0.6,0-1.4,0-2.3,0c-0.1,0-0.1,0-0.2-0.1
		c-0.2-0.3-0.3-0.8-0.5-1.1H124.4z M126.8,10.6l-0.9-1.9l-0.8,1.9H126.8z"/>
	<path class="st1" d="M135.4,5c1.9,0,2.9,1.3,2.9,2.9c0,1.1-0.4,2-1.2,2.3c0.3,0.5,1,1.8,1.8,2.9c0.1,0.2,0.1,0.3,0,0.3h-2.2
		c-0.1,0-0.1,0-0.3-0.2c-0.4-0.8-1.3-2.2-1.3-2.2h-1.4c0,0,0,1.4,0,2.4c0,0.1,0,0.1-0.1,0.1c-0.8,0-1.3,0-2,0c-0.1,0-0.1,0-0.1-0.1
		c0-1.5,0-2.8,0-4.1c0-1.4,0-2.6,0-4.1c0-0.1,0.1-0.1,0.1-0.1h3.8V5z M134.9,9.3c0.7,0,1-0.5,1-1.2s-0.3-1.2-1.1-1.2h-1.2v2.4
		L134.9,9.3z"/>
	<path class="st1" d="M146.2,12.9c-0.4,0.4-1.2,0.8-2.2,0.8c-1.6,0-2.7-0.9-2.7-2.4c0-1.6,0.9-2.4,2.1-2.8c-0.1-0.4-0.4-1-0.4-1.5
		c0-1.5,1.2-2.2,2.6-2.2c0.9,0,1.5,0.1,2.3,0.9c0.1,0.1,0.1,0.2,0,0.3c-0.3,0.3-0.6,0.7-0.8,1c-0.1,0.1-0.2,0.1-0.3,0
		c-0.2-0.3-0.5-0.5-0.9-0.5c-0.5,0-0.7,0.3-0.7,0.6c0,0.2,0.1,0.6,0.6,1.4l0.9,1.5c0,0,0.6-1,0.7-1.3c0-0.1,0.6,0.1,1.2,0.5
		c0.2,0.1,0.2,0.1,0.1,0.3c-0.2,0.6-0.7,1.4-1.1,1.9c0,0,0.5,0.7,1.2,1.8c0.1,0.2,0.2,0.3,0,0.3c-0.8,0-1.1,0-2.1,0
		C146.6,13.5,146.5,13.3,146.2,12.9z M143.4,11c0,0.7,0.4,1,1,1c0.2,0,0.9-0.2,1-0.3l-1.1-1.9C143.7,10,143.4,10.5,143.4,11z"/>
	<path class="st1" d="M91,21.6l1.9,0.5c0.1,0,0.1,0.1,0.1,0.2c-0.6,1.4-2,2.7-4,2.7c-2.7,0-4.6-2.1-4.6-4.5c0-2.6,2-4.6,4.5-4.6
		c2.1,0,3.4,1.1,4,2.5c0.1,0.2,0,0.2,0,0.2L91,19.2c-0.1,0-0.1,0-0.1-0.1c-0.4-0.8-1-1.2-1.9-1.2c-1.3,0-2.1,1-2.1,2.4
		c0,1.6,1.1,2.3,2.1,2.3c0.9,0,1.5-0.4,1.8-1.1C90.9,21.6,90.9,21.5,91,21.6z"/>
	<path class="st1" d="M98.4,15.8c2.6,0,4.6,2,4.6,4.6c0,2.5-2,4.6-4.6,4.6s-4.6-2-4.6-4.6C93.8,17.9,95.8,15.8,98.4,15.8z
		 M96.2,20.4c0,1.3,0.8,2.4,2.2,2.4c1.4,0,2.2-1,2.2-2.4c0-1.3-0.8-2.4-2.2-2.4S96.2,19.1,96.2,20.4z"/>
	<path class="st1" d="M113.2,24.5c0,0.1,0,0.2-0.1,0.2c-0.7,0-1.3,0-2.1,0c-0.1,0-0.1,0-0.1-0.1l-0.1-3.7c0,0-1.5,1.5-2,2
		c-0.1,0.1-0.1,0.1-0.2,0c-0.5-0.5-2-2-2-2l-0.1,3.7c0,0.2,0,0.2-0.1,0.2c-0.8,0-1.2,0-1.9,0c-0.1,0-0.1,0-0.1-0.1
		c0-2.8,0.1-6.1,0.3-8.7c0-0.2,0.1-0.2,0.2-0.1c1.1,1.1,3.3,3.3,3.9,4c0.5-0.6,2.7-2.9,3.9-4.1c0.1-0.1,0.2-0.1,0.2,0.1
		C113.1,19.2,113.1,21.4,113.2,24.5z"/>
	<path class="st1" d="M117.5,22.5c0,0,0,1.1,0,2.1c0,0.1,0,0.1-0.1,0.1c-0.8,0-1.3,0-2.1,0c-0.1,0-0.1,0-0.1-0.1c0-1.6,0-2.9,0-4.2
		c0-1.4,0-2.7,0-4.3c0-0.1,0.1-0.1,0.1-0.1h3.9c1.9,0,3.1,1.4,3.1,3.3c0,2.1-1.2,2.9-2.9,3.1C119,22.5,117.5,22.5,117.5,22.5z
		 M117.5,17.9v2.7h1.1c0.9,0,1.3-0.6,1.3-1.3c0-0.9-0.5-1.4-1.3-1.4C118.6,17.9,117.5,17.9,117.5,17.9z"/>
	<path class="st1" d="M124.9,23.5c-0.2,0.4-0.3,0.8-0.5,1.1c0,0.1-0.1,0.1-0.2,0.1c-0.8,0-1.3,0-2.1,0c-0.1,0-0.1-0.1-0.1-0.2
		c1.3-2.8,3.2-6.6,4.4-8.8h0.3c1.2,2.4,3,6,4.4,8.8c0.1,0.2,0.1,0.2-0.1,0.2c-0.6,0-1.4,0-2.4,0c-0.1,0-0.1,0-0.2-0.1
		c-0.2-0.3-0.3-0.8-0.5-1.1H124.9z M127.4,21.8l-0.9-2l-0.9,2H127.4z"/>
	<path class="st1" d="M132.2,15.9c0-0.1,0.1-0.1,0.1-0.1c1.8,1.3,5,4.2,5,4.2v-3.9c0-0.1,0-0.2,0.1-0.2c0.8,0,1.1,0,2,0
		c0.1,0,0.1,0,0.1,0.2c0.1,2.5,0,6,0,8.6c0,0.2,0,0.2-0.2,0.1c-1.9-1.5-5-4.2-5-4.2v3.9c0,0.1,0,0.1-0.1,0.1c-0.8,0-1.2,0-1.9,0
		c-0.1,0-0.1-0.1-0.1-0.1C132.2,21.3,132.2,19.3,132.2,15.9z"/>
	<path class="st1" d="M146.1,21.9v2.6c0,0.2,0,0.2-0.1,0.2c-0.8,0-1.4,0-2.1,0c-0.1,0-0.1,0-0.1-0.2V22c0,0-1.9-3.3-3.1-5.8
		c-0.1-0.2-0.1-0.2,0.1-0.2h2.2c0.2,0,0.3,0.1,0.3,0.2c0.5,1.1,1.7,3.7,1.7,3.7s1.2-2.6,1.6-3.7c0.1-0.2,0.1-0.2,0.3-0.2h1.9
		c0.3,0,0.3,0,0.2,0.3C147.8,18.8,146.1,21.9,146.1,21.9z"/>
</g>
</svg>
