<svg version="1.1" xmlns="http://www.w3.org/2000/svg" xmlns:xlink="http://www.w3.org/1999/xlink" x="0px" y="0px" width="134px"
	 height="17.93px" viewBox="0 0 134 17.93" style="enable-background:new 0 0 134 17.93;" xml:space="preserve">
<style type="text/css">
	.st0{fill:#FFFFFF;}
</style>
<defs>
</defs>
<g id="Livello_2_1_">
	<g id="Livello_1-2_1_">
		<polygon class="st0" points="97.69,3.98 73.79,3.98 75.24,0 103.12,0 96.59,17.93 92.61,17.93 		"/>
		<polygon class="st0" points="132.55,3.98 104.66,3.98 106.11,0 134,0 		"/>
		<polygon class="st0" points="130.01,10.96 102.12,10.96 103.57,6.97 131.46,6.97 		"/>
		<polygon class="st0" points="127.47,17.93 99.58,17.93 101.03,13.94 128.92,13.94 		"/>
		<polygon class="st0" points="36.3,13.94 60.2,13.94 58.75,17.93 30.87,17.93 37.4,0 41.38,0 		"/>
		<polygon class="st0" points="68.27,0 72.25,0 65.72,17.93 61.74,17.93 		"/>
		<polygon class="st0" points="1.45,13.94 29.34,13.94 27.88,17.93 0,17.93 		"/>
		<polygon class="st0" points="3.99,6.97 31.87,6.97 30.42,10.96 2.54,10.96 		"/>
		<polygon class="st0" points="6.53,0 34.41,0 32.96,3.98 5.08,3.98 		"/>
	</g>
</g>
</svg>
