<svg version="1.1" xmlns="http://www.w3.org/2000/svg" xmlns:xlink="http://www.w3.org/1999/xlink" x="0px" y="0px" width="118px"
	 height="57.34px" viewBox="0 0 118 57.34" style="enable-background:new 0 0 118 57.34;" xml:space="preserve">
<style type="text/css">
	.st0{fill:#DEBA4C;}
</style>
<defs>
</defs>
<polygon class="st0" points="63.29,17.38 43.12,0 59.86,22.89 63.29,43.94 66.72,22.89 83.46,0 "/>
<path class="st0" d="M99.76,4.74c-10.91,0-18.34,8.04-18.34,17.28s7.32,17.19,18.24,17.19S118,31.16,118,21.91
	S110.67,4.74,99.76,4.74z M99.76,33.2c-6.69,0-11.54-5.06-11.54-11.27s4.77-11.19,11.46-11.19c6.7,0,11.54,5.06,11.54,11.27
	S106.45,33.2,99.75,33.2H99.76z"/>
<polygon class="st0" points="20.42,26.68 6.04,4.74 0,4.74 0,39.2 6.76,39.2 6.76,18.02 20.42,39.2 34.13,18.05 34.13,39.2 
	40.84,39.2 40.84,4.74 34.85,4.74 "/>
<polygon class="st0" points="7.86,56.35 2.15,48.62 0,48.62 0,57.15 1.3,57.15 1.3,49.55 6.95,57.15 8.73,57.15 14.38,49.55 
	14.38,57.15 15.69,57.15 15.69,48.62 13.59,48.62 "/>
<path class="st0" d="M27.73,48.58l-6.15,8.57h1.46L24.55,55h8.06l1.52,2.14h1.53l-6.14-8.57H27.73z M25.32,53.92l3.27-4.6l3.25,4.6
	H25.32z"/>
<path class="st0" d="M49.56,52.26c-3.03-0.14-3.79-0.34-4.12-0.66c-0.17-0.19-0.26-0.44-0.24-0.69c-0.01-0.28,0.09-0.56,0.28-0.77
	c0.36-0.37,1.21-0.65,3.71-0.65c1.81,0,3.61,0.3,5.32,0.9v-1.15c-1.72-0.55-3.52-0.82-5.32-0.78c-2.92,0-4.15,0.41-4.72,1.01
	c-0.39,0.42-0.59,0.98-0.56,1.56c-0.04,0.5,0.14,0.98,0.48,1.35c0.55,0.55,1.64,0.84,5.04,1.01c3.29,0.16,3.89,0.34,4.2,0.65
	c0.19,0.21,0.29,0.48,0.27,0.77c0.01,0.3-0.1,0.6-0.32,0.82c-0.35,0.35-1.17,0.67-3.92,0.67c-2.16,0-4.72-0.49-6.02-1.07v1.15
	c1.35,0.56,3.59,0.96,6.02,0.96c3.31,0,4.43-0.52,4.98-1.08c0.4-0.42,0.6-0.99,0.57-1.57c0.03-0.51-0.15-1.02-0.5-1.4
	C54.15,52.71,53.23,52.43,49.56,52.26z"/>
<polygon class="st0" points="63.82,49.72 69.52,49.72 69.52,57.15 70.85,57.15 70.85,49.72 76.54,49.72 76.54,48.62 63.82,48.62 "/>
<polygon class="st0" points="85.49,57.15 96.44,57.15 96.44,56.05 86.79,56.05 86.79,53.37 96.26,53.37 96.26,52.3 86.79,52.3 
	86.79,49.72 96.44,49.72 96.44,48.62 85.49,48.62 "/>
<path class="st0" d="M113.02,54.12c2-0.06,2.76-0.45,3.27-0.96c0.47-0.49,0.71-1.15,0.67-1.83c0.04-0.67-0.19-1.32-0.64-1.81
	c-0.59-0.58-1.38-0.9-3.84-0.9h-7v8.52h1.31v-3.03h4.22l4.96,3.03H118v-0.03L113.02,54.12z M106.8,53.07v-3.35h5.7
	c1.74,0,2.36,0.17,2.74,0.54c0.54,0.63,0.55,1.57,0.03,2.22c-0.37,0.36-1.06,0.6-2.76,0.6L106.8,53.07z"/>
</svg>
