<svg version="1.1" xmlns="http://www.w3.org/2000/svg" xmlns:xlink="http://www.w3.org/1999/xlink" x="0px" y="0px"
	 width="292.88px" height="130.14px" viewBox="0 0 292.88 130.14" style="enable-background:new 0 0 292.88 130.14;"
	 xml:space="preserve">
<style type="text/css">
	.st0{fill:#353535;}
</style>
<defs>
</defs>
<g id="Layer_x0020_1_1_">
	<path class="st0" d="M61.06,128.79h54.23c4.07,0,5.42-1.36,2.71-4.07L59.7,65.07h55.58c2.71,0,4.07-2.71,1.36-5.42L63.77,5.42
		C61.06,2.71,55.64,0,51.57,0H4.12C0.05,0-1.3,2.71,1.41,5.42L59.7,65.07H5.48c-4.07,0-5.42,1.36-2.71,5.42L61.06,128.79z"/>
	<path class="st0" d="M131.55,128.79V65.07h25.76c6.78,0,12.2,1.36,16.27,5.42c4.07,4.07,6.78,8.13,6.78,14.91
		c0,4.07-1.36,8.13-4.07,12.2c-2.71,2.71-5.42,5.42-9.49,6.78l13.56,24.4H166.8l-13.56-23.05h-9.49v23.05H131.55z M143.75,94.9
		h13.56c6.78,0,10.85-4.07,10.85-9.49c0-6.78-4.07-9.49-10.85-9.49h-13.56V94.9z"/>
	<polygon class="st0" points="261.7,128.79 261.7,75.92 242.72,75.92 242.72,65.07 292.88,65.07 292.88,75.92 273.9,75.92 
		273.9,128.79 	"/>
	<path class="st0" d="M230.52,70.49c-4.07-4.07-10.85-5.42-16.27-5.42c-8.13,0-14.91,2.71-20.33,8.13
		c-5.42,5.42-8.13,13.56-8.13,23.05c0,10.85,2.71,18.98,8.13,24.4c5.42,5.42,12.2,9.49,20.33,9.49c6.78,0,12.2-2.71,17.62-8.13
		c4.07-4.07,6.78-10.85,6.78-17.62v-8.13h-24.4v9.49h12.2c0,4.07-1.36,6.78-2.71,9.49c-2.71,2.71-5.42,2.71-9.49,2.71
		c-5.42,0-8.13-1.36-10.85-5.42c-4.07-2.71-5.42-9.49-5.42-16.27s1.36-12.2,5.42-14.91c2.71-4.07,6.78-5.42,10.85-5.42
		c5.42,0,9.49,2.71,10.85,9.49h13.56C237.29,79.98,234.58,74.56,230.52,70.49z"/>
</g>
</svg>
